<svg xmlns="http://www.w3.org/2000/svg" viewBox="0 0 265.19 289.12"><defs><style>.cls-1{fill:#777;}</style></defs><title>berichten</title><g id="Laag_2" data-name="Laag 2"><g id="Laag_1-2" data-name="Laag 1"><path class="cls-1" d="M132.6,0A132.52,132.52,0,0,0,29.34,215.68L13.91,289.12,78,253.34A132.56,132.56,0,1,0,132.6,0ZM61.79,151.78A19.19,19.19,0,1,1,81,132.6,19.19,19.19,0,0,1,61.79,151.78Zm70.81,0a19.19,19.19,0,1,1,19.18-19.18A19.19,19.19,0,0,1,132.6,151.78Zm72.14,0a19.19,19.19,0,1,1,19.18-19.18A19.19,19.19,0,0,1,204.74,151.78Z"/></g></g></svg>