<svg xmlns="http://www.w3.org/2000/svg" viewBox="0 0 166.6 332.57"><defs><style>.cls-1{fill:#1d1d1b;}</style></defs><title>Bewaren</title><g id="Laag_2" data-name="Laag 2"><g id="Laag_1-2" data-name="Laag 1"><path class="cls-1" d="M98.79,183.55l67.81.59a96.81,96.81,0,0,0-44.43-69.57q.89-40.62,1.76-81.25c2,0,16.43.07,26.3-11.69A33.51,33.51,0,0,0,157.83,0L83.3.29,8.77,0a33.51,33.51,0,0,0,7.6,21.63c9.87,11.76,24.34,11.73,26.3,11.69q.88,40.62,1.76,81.25A96.81,96.81,0,0,0,0,184.14l67.81-.59q-.3,62.26-.59,124.51c-1.51,14.15,8.25,24.37,16.08,24.51,7.83-.14,17.59-10.36,16.08-24.51Q99.08,245.81,98.79,183.55Z"/></g></g></svg>