<svg xmlns="http://www.w3.org/2000/svg" viewBox="0 0 238.55 279.48"><defs><style>.cls-1{fill:#777;}</style></defs><title>bewaard</title><g id="Laag_2" data-name="Laag 2"><g id="Laag_1-2" data-name="Laag 1"><path class="cls-1" d="M106.31,128.93a64.33,64.33,0,0,0,25.93,0c28.82-5.92,47.13-24.75,51.92-53.6,4.61-27.76-6.87-49.75-30.64-65.12C143,3.42,131.32,1.11,119.28,0,107.23,1.11,95.52,3.42,85,10.21,61.26,25.58,49.78,47.57,54.39,75.33,59.18,104.18,77.49,123,106.31,128.93Z"/><path class="cls-1" d="M238.09,248.13A127,127,0,0,0,233.92,225c-25.28-55.82-69.07-84.24-114.64-83.19C73.7,140.8,29.91,169.22,4.64,225a125.87,125.87,0,0,0-2.95,54.44H236.86A125.88,125.88,0,0,0,238.09,248.13Z"/></g></g></svg>