<svg xmlns="http://www.w3.org/2000/svg" viewBox="0 0 249.48 257.74"><defs><style>.cls-1{fill:#777;}</style></defs><title>delen</title><g id="Laag_2" data-name="Laag 2"><g id="Laag_1-2" data-name="Laag 1"><path class="cls-1" d="M249.42,232.65l-.78-66.25a24.72,24.72,0,0,0-49.1.78l-.78,40.53h-148l-.78-40.53a24.72,24.72,0,0,0-49.1-.78L.06,232.65A24,24,0,0,0,4.9,249c8.1,10.28,21.69,8.72,22.44,8.63h194.8c.75.09,14.34,1.65,22.44-8.63A24,24,0,0,0,249.42,232.65Z"/><path class="cls-1" d="M124.78,171.28a25.13,25.13,0,0,0,24.85-21.93l.29-66.63,16.66,8.18c8.13,5.35,18.19,5.44,24.55.58,8.63-6.59,10.24-22.12.29-32.73L124.49,0l-66,58.75c-10.27,10.59-8.86,26.32-.29,33,6.27,4.91,16.31,4.92,24.55-.3l17.53-8.18v66.64A25.12,25.12,0,0,0,124.78,171.28Z"/></g></g></svg>