<svg xmlns="http://www.w3.org/2000/svg" viewBox="0 0 249.48 257.74"><defs><style>.cls-1{fill:#1d1d1b;}</style></defs><title>Downloaden</title><g id="Laag_2" data-name="Laag 2"><g id="Laag_1-2" data-name="Laag 1"><path class="cls-1" d="M249.42,232.65l-.78-66.25a24.72,24.72,0,0,0-49.1.78l-.78,40.53h-148l-.78-40.53a24.72,24.72,0,0,0-49.1-.78L.06,232.65A24,24,0,0,0,4.9,249c8.1,10.28,21.69,8.72,22.44,8.63h194.8c.75.09,14.34,1.65,22.44-8.63A24,24,0,0,0,249.42,232.65Z"/><path class="cls-1" d="M124.7,0A25.12,25.12,0,0,0,99.85,21.92l-.29,66.64L82.9,80.38c-8.13-5.36-18.19-5.45-24.55-.59-8.62,6.6-10.24,22.13-.29,32.74L125,171.28l66.06-58.75c10.27-10.6,8.85-26.33.29-33-6.28-4.91-16.32-4.93-24.55.29L149.25,88V21.34A25.11,25.11,0,0,0,124.7,0Z"/></g></g></svg>