<svg xmlns="http://www.w3.org/2000/svg" viewBox="0 0 240.93 285.93"><defs><style>.cls-1{fill:#777;}</style></defs><title>notificaties</title><g id="Laag_2" data-name="Laag 2"><g id="Laag_1-2" data-name="Laag 1"><path class="cls-1" d="M227.39,190.12a139.39,139.39,0,0,0-22.85-30.47L206,70.78c-1.34-9.41-5.24-26.84-18.62-42.32C165,2.57,131.19-.38,120.46,0,109.74-.38,76,2.57,53.57,28.46,40.19,43.94,36.29,61.37,35,70.78l1.44,88.87A139.21,139.21,0,0,0,0,224.82H240.93A139.37,139.37,0,0,0,227.39,190.12Z"/><path class="cls-1" d="M120.46,285.93a36,36,0,0,0,36-36H84.51A36,36,0,0,0,120.46,285.93Z"/></g></g></svg>