<svg xmlns="http://www.w3.org/2000/svg" viewBox="0 0 200 240"><defs><style>.cls-1{fill:#777;}</style></defs><title>meldingen</title><g id="Laag_2" data-name="Laag 2"><g id="Laag_1-2" data-name="Laag 1"><path class="cls-1" d="M188.76,159.57a117.15,117.15,0,0,0-19-25.57q.6-37.29,1.19-74.59c-1.11-7.9-4.34-22.53-15.45-35.52C137,2.16,108.9-.32,100,0,91.1-.32,63.05,2.16,44.47,23.89,33.36,36.88,30.13,51.51,29,59.41Q29.61,96.7,30.21,134A117.12,117.12,0,0,0,0,188.7H200A118,118,0,0,0,188.76,159.57Z"/><path class="cls-1" d="M100,240a30,30,0,0,0,29.85-30.18H70.15A30,30,0,0,0,100,240Z"/></g></g></svg>