<svg xmlns="http://www.w3.org/2000/svg" viewBox="0 0 261.88 261.88"><defs><style>.cls-1{fill:#1d1d1b;}</style></defs><title>Rapporteren</title><g id="Laag_2" data-name="Laag 2"><g id="Laag_1-2" data-name="Laag 1"><path class="cls-1" d="M130.94,0A130.94,130.94,0,1,0,261.88,130.94,130.94,130.94,0,0,0,130.94,0Zm63.57,67.88-.51-.51ZM130.94,41.37A88.67,88.67,0,0,1,176.05,54L54,176.05a88.67,88.67,0,0,1-12.6-45.11A89.57,89.57,0,0,1,130.94,41.37ZM67.08,193.64l1.16,1.16C67.85,194.42,67.46,194,67.08,193.64Zm63.86,26.87a88.67,88.67,0,0,1-45-12.54l122-122a88.64,88.64,0,0,1,12.54,45A89.57,89.57,0,0,1,130.94,220.51Z"/></g></g></svg>