<svg xmlns="http://www.w3.org/2000/svg" viewBox="0 0 283.06 283.06"><defs><style>.cls-1{fill:#767676;}</style></defs><title>toevoegen</title><g id="Laag_2" data-name="Laag 2"><g id="Laag_1-2" data-name="Laag 1"><path class="cls-1" d="M259.21,117.68H165.37V23.84A23.84,23.84,0,0,0,141.53,0h0a23.85,23.85,0,0,0-23.85,23.84v93.84H23.84A23.85,23.85,0,0,0,0,141.53H0a23.84,23.84,0,0,0,23.84,23.84h93.84v93.84a23.85,23.85,0,0,0,23.85,23.85h0a23.84,23.84,0,0,0,23.84-23.85V165.37h93.84a23.84,23.84,0,0,0,23.85-23.84h0A23.85,23.85,0,0,0,259.21,117.68Z"/></g></g></svg>