<svg xmlns="http://www.w3.org/2000/svg" viewBox="0 0 300.04 240.31"><defs><style>.cls-1{fill:#777;}</style></defs><title>volgend</title><g id="Laag_2" data-name="Laag 2"><g id="Laag_1-2" data-name="Laag 1"><path class="cls-1" d="M91.41,110.86A61.15,61.15,0,0,0,102.56,112a61.24,61.24,0,0,0,11.15-1.14c24.78-5.09,40.52-21.28,44.64-46.09,4-23.86-5.9-42.77-26.34-56C123,2.94,112.91,1,102.56,0,92.2,1,82.13,2.94,73.11,8.78,52.67,22,42.81,40.91,46.77,64.77,50.88,89.58,66.63,105.77,91.41,110.86Z"/><path class="cls-1" d="M210.58,138.47a43.23,43.23,0,0,0,17.55,0c19.49-4,31.88-16.74,35.12-36.26,3.11-18.77-4.65-33.65-20.73-44-7.1-4.59-15-6.16-23.16-6.91-8.15.75-16.07,2.32-23.17,6.91-16.08,10.4-23.84,25.28-20.73,44.05C178.7,121.73,191.09,134.47,210.58,138.47Z"/><path class="cls-1" d="M299.73,219.1a86.19,86.19,0,0,0-2.82-15.62c-17.1-37.75-46.72-57-77.55-56.27a72.3,72.3,0,0,0-40.24,11.51c-21.22-24.78-48.44-37.39-76.56-36.75C63.37,121.07,25.72,145.51,4,193.5A107.26,107.26,0,0,0,.4,213.36a108.69,108.69,0,0,0,1,26.95H298.9A85.36,85.36,0,0,0,299.73,219.1Z"/></g></g></svg>