<svg xmlns="http://www.w3.org/2000/svg" viewBox="0 0 240 240"><defs><style>.cls-1{fill:#777;}</style></defs><title>volgend_2</title><g id="Laag_2" data-name="Laag 2"><g id="Laag_1-2" data-name="Laag 1"><path class="cls-1" d="M239.75,218.82a103.53,103.53,0,0,0-2.26-15.6c-13.67-37.71-37.37-56.91-62-56.2-11.23-.32-22.21,3.69-32.18,11.5-17-24.75-38.75-37.35-61.24-36.71-31.35-.89-61.47,23.51-78.85,71.44A131.84,131.84,0,0,0,.32,213.08,134.75,134.75,0,0,0,1.16,240H239.09A106.36,106.36,0,0,0,239.75,218.82Z"/><circle class="cls-1" cx="82.04" cy="55.93" r="55.93"/><circle class="cls-1" cx="175.46" cy="95.19" r="35.79"/></g></g></svg>